<mxfile host="app.diagrams.net" modified="2022-09-25T04:19:19.274Z" agent="5.0 (Windows NT 10.0; Win64; x64) AppleWebKit/537.36 (KHTML, like Gecko) Chrome/105.0.0.0 Safari/537.36" etag="Afx_rqFKYWKih_ZwbGMC" version="20.3.6" type="github">
  <diagram name="Page-1" id="2cc2dc42-3aac-f2a9-1cec-7a8b7cbee084">
    <mxGraphModel dx="1117" dy="611" grid="1" gridSize="10" guides="1" tooltips="1" connect="1" arrows="1" fold="1" page="1" pageScale="1" pageWidth="1100" pageHeight="850" background="none" math="0" shadow="0">
      <root>
        <mxCell id="0" />
        <mxCell id="1" parent="0" />
        <mxCell id="7026571954dc6520-1" value="" style="strokeWidth=1;shadow=0;dashed=0;align=center;html=1;shape=mxgraph.mockup.containers.browserWindow;rSize=0;strokeColor=#666666;mainText=,;recursiveResize=0;rounded=0;labelBackgroundColor=none;fontFamily=Verdana;fontSize=12;fillColor=none;" parent="1" vertex="1">
          <mxGeometry x="50" y="120" width="1090" height="2280" as="geometry" />
        </mxCell>
        <mxCell id="7026571954dc6520-2" value="Page 1" style="strokeWidth=1;shadow=0;dashed=0;align=center;html=1;shape=mxgraph.mockup.containers.anchor;fontSize=17;fontColor=#666666;align=left;" parent="7026571954dc6520-1" vertex="1">
          <mxGeometry x="60" y="12" width="110" height="26" as="geometry" />
        </mxCell>
        <mxCell id="7026571954dc6520-3" value="https://www.localsruspetshop/home.com" style="strokeWidth=1;shadow=0;dashed=0;align=center;html=1;shape=mxgraph.mockup.containers.anchor;rSize=0;fontSize=17;fontColor=#666666;align=left;" parent="7026571954dc6520-1" vertex="1">
          <mxGeometry x="130" y="60" width="320" height="30" as="geometry" />
        </mxCell>
        <mxCell id="7026571954dc6520-4" value="&lt;b&gt;LocalsRUs Pet Shop&lt;/b&gt;" style="text;html=1;points=[];align=left;verticalAlign=top;spacingTop=-4;fontSize=30;fontFamily=Helvetica;" parent="7026571954dc6520-1" vertex="1">
          <mxGeometry x="90" y="120" width="340" height="40" as="geometry" />
        </mxCell>
        <mxCell id="7026571954dc6520-14" value="Search" style="strokeWidth=1;shadow=0;dashed=0;align=center;html=1;shape=mxgraph.mockup.forms.searchBox;strokeColor=#999999;mainText=;strokeColor2=#008cff;fontColor=#666666;fontSize=17;align=left;spacingLeft=3;rounded=0;labelBackgroundColor=none;" parent="7026571954dc6520-1" vertex="1">
          <mxGeometry x="460" y="122" width="450" height="30" as="geometry" />
        </mxCell>
        <mxCell id="7026571954dc6520-15" value="" style="verticalLabelPosition=bottom;shadow=0;dashed=0;align=center;html=1;verticalAlign=top;strokeWidth=1;shape=mxgraph.mockup.markup.line;strokeColor=#999999;rounded=0;labelBackgroundColor=none;fillColor=#ffffff;fontFamily=Verdana;fontSize=12;fontColor=#000000;" parent="7026571954dc6520-1" vertex="1">
          <mxGeometry y="210" width="1090" height="20" as="geometry" />
        </mxCell>
        <mxCell id="ZKCa81xU6BHPcgiJYVoB-1" value="" style="whiteSpace=wrap;html=1;aspect=fixed;" vertex="1" parent="7026571954dc6520-1">
          <mxGeometry x="30" y="120" width="40" height="40" as="geometry" />
        </mxCell>
        <mxCell id="ZKCa81xU6BHPcgiJYVoB-27" value="" style="group" vertex="1" connectable="0" parent="7026571954dc6520-1">
          <mxGeometry x="270" y="170" width="160" height="30" as="geometry" />
        </mxCell>
        <mxCell id="ZKCa81xU6BHPcgiJYVoB-22" value="" style="ellipse;whiteSpace=wrap;html=1;aspect=fixed;fontColor=#000000;fillColor=none;" vertex="1" parent="ZKCa81xU6BHPcgiJYVoB-27">
          <mxGeometry width="30" height="30" as="geometry" />
        </mxCell>
        <mxCell id="ZKCa81xU6BHPcgiJYVoB-41" value="" style="group" vertex="1" connectable="0" parent="ZKCa81xU6BHPcgiJYVoB-27">
          <mxGeometry x="5" width="155" height="30" as="geometry" />
        </mxCell>
        <mxCell id="ZKCa81xU6BHPcgiJYVoB-18" value="ABOUT US" style="strokeWidth=1;shadow=0;dashed=0;align=center;html=1;shape=mxgraph.mockup.buttons.button;strokeColor=#666666;fontColor=#000000;mainText=;buttonStyle=round;fontSize=17;fontStyle=1;fillColor=none;whiteSpace=wrap;" vertex="1" parent="ZKCa81xU6BHPcgiJYVoB-41">
          <mxGeometry x="25" width="130" height="30" as="geometry" />
        </mxCell>
        <mxCell id="ZKCa81xU6BHPcgiJYVoB-38" value="&lt;font style=&quot;font-size: 10px;&quot;&gt;icon&lt;/font&gt;" style="text;html=1;strokeColor=none;fillColor=none;align=center;verticalAlign=middle;whiteSpace=wrap;rounded=0;fontColor=#000000;" vertex="1" parent="ZKCa81xU6BHPcgiJYVoB-41">
          <mxGeometry y="5" width="20" height="20" as="geometry" />
        </mxCell>
        <mxCell id="ZKCa81xU6BHPcgiJYVoB-28" value="" style="group" vertex="1" connectable="0" parent="7026571954dc6520-1">
          <mxGeometry x="430" y="170" width="160" height="30" as="geometry" />
        </mxCell>
        <mxCell id="ZKCa81xU6BHPcgiJYVoB-23" value="" style="ellipse;whiteSpace=wrap;html=1;aspect=fixed;fontColor=#000000;fillColor=none;" vertex="1" parent="ZKCa81xU6BHPcgiJYVoB-28">
          <mxGeometry width="30" height="30" as="geometry" />
        </mxCell>
        <mxCell id="ZKCa81xU6BHPcgiJYVoB-42" value="" style="group" vertex="1" connectable="0" parent="ZKCa81xU6BHPcgiJYVoB-28">
          <mxGeometry x="5" width="155" height="30" as="geometry" />
        </mxCell>
        <mxCell id="ZKCa81xU6BHPcgiJYVoB-19" value="ADOPTION" style="strokeWidth=1;shadow=0;dashed=0;align=center;html=1;shape=mxgraph.mockup.buttons.button;strokeColor=#666666;fontColor=#000000;mainText=;buttonStyle=round;fontSize=17;fontStyle=1;fillColor=none;whiteSpace=wrap;" vertex="1" parent="ZKCa81xU6BHPcgiJYVoB-42">
          <mxGeometry x="25" width="130" height="30" as="geometry" />
        </mxCell>
        <mxCell id="ZKCa81xU6BHPcgiJYVoB-37" value="&lt;font style=&quot;font-size: 10px;&quot;&gt;icon&lt;/font&gt;" style="text;html=1;strokeColor=none;fillColor=none;align=center;verticalAlign=middle;whiteSpace=wrap;rounded=0;fontColor=#000000;" vertex="1" parent="ZKCa81xU6BHPcgiJYVoB-42">
          <mxGeometry y="5" width="20" height="20" as="geometry" />
        </mxCell>
        <mxCell id="ZKCa81xU6BHPcgiJYVoB-31" value="" style="group" vertex="1" connectable="0" parent="7026571954dc6520-1">
          <mxGeometry x="590" y="170" width="160" height="30" as="geometry" />
        </mxCell>
        <mxCell id="ZKCa81xU6BHPcgiJYVoB-24" value="" style="ellipse;whiteSpace=wrap;html=1;aspect=fixed;fontColor=#000000;fillColor=none;" vertex="1" parent="ZKCa81xU6BHPcgiJYVoB-31">
          <mxGeometry width="30" height="30" as="geometry" />
        </mxCell>
        <mxCell id="ZKCa81xU6BHPcgiJYVoB-43" value="" style="group" vertex="1" connectable="0" parent="ZKCa81xU6BHPcgiJYVoB-31">
          <mxGeometry x="5" width="155" height="30" as="geometry" />
        </mxCell>
        <mxCell id="ZKCa81xU6BHPcgiJYVoB-20" value="WHY ADOPT" style="strokeWidth=1;shadow=0;dashed=0;align=center;html=1;shape=mxgraph.mockup.buttons.button;strokeColor=#666666;fontColor=#000000;mainText=;buttonStyle=round;fontSize=17;fontStyle=1;fillColor=none;whiteSpace=wrap;" vertex="1" parent="ZKCa81xU6BHPcgiJYVoB-43">
          <mxGeometry x="25" width="130" height="30" as="geometry" />
        </mxCell>
        <mxCell id="ZKCa81xU6BHPcgiJYVoB-36" value="&lt;font style=&quot;font-size: 10px;&quot;&gt;icon&lt;/font&gt;" style="text;html=1;strokeColor=none;fillColor=none;align=center;verticalAlign=middle;whiteSpace=wrap;rounded=0;fontColor=#000000;" vertex="1" parent="ZKCa81xU6BHPcgiJYVoB-43">
          <mxGeometry y="5" width="20" height="20" as="geometry" />
        </mxCell>
        <mxCell id="ZKCa81xU6BHPcgiJYVoB-32" value="" style="group" vertex="1" connectable="0" parent="7026571954dc6520-1">
          <mxGeometry x="750" y="170" width="160" height="30" as="geometry" />
        </mxCell>
        <mxCell id="ZKCa81xU6BHPcgiJYVoB-25" value="" style="ellipse;whiteSpace=wrap;html=1;aspect=fixed;fontColor=#000000;fillColor=none;" vertex="1" parent="ZKCa81xU6BHPcgiJYVoB-32">
          <mxGeometry width="30" height="30" as="geometry" />
        </mxCell>
        <mxCell id="ZKCa81xU6BHPcgiJYVoB-44" value="" style="group" vertex="1" connectable="0" parent="ZKCa81xU6BHPcgiJYVoB-32">
          <mxGeometry x="5" width="155" height="30" as="geometry" />
        </mxCell>
        <mxCell id="ZKCa81xU6BHPcgiJYVoB-12" value="CONTACT US" style="strokeWidth=1;shadow=0;dashed=0;align=center;html=1;shape=mxgraph.mockup.buttons.button;strokeColor=#666666;fontColor=#000000;mainText=;buttonStyle=round;fontSize=17;fontStyle=1;fillColor=none;whiteSpace=wrap;" vertex="1" parent="ZKCa81xU6BHPcgiJYVoB-44">
          <mxGeometry x="25" width="130" height="30" as="geometry" />
        </mxCell>
        <mxCell id="ZKCa81xU6BHPcgiJYVoB-35" value="&lt;font style=&quot;font-size: 10px;&quot;&gt;icon&lt;/font&gt;" style="text;html=1;strokeColor=none;fillColor=none;align=center;verticalAlign=middle;whiteSpace=wrap;rounded=0;fontColor=#000000;" vertex="1" parent="ZKCa81xU6BHPcgiJYVoB-44">
          <mxGeometry y="5" width="20" height="20" as="geometry" />
        </mxCell>
        <mxCell id="ZKCa81xU6BHPcgiJYVoB-26" value="" style="group" vertex="1" connectable="0" parent="7026571954dc6520-1">
          <mxGeometry x="110" y="170" width="160" height="30" as="geometry" />
        </mxCell>
        <mxCell id="ZKCa81xU6BHPcgiJYVoB-21" value="" style="ellipse;whiteSpace=wrap;html=1;aspect=fixed;fontColor=#000000;fillColor=none;" vertex="1" parent="ZKCa81xU6BHPcgiJYVoB-26">
          <mxGeometry width="30" height="30" as="geometry" />
        </mxCell>
        <mxCell id="ZKCa81xU6BHPcgiJYVoB-40" value="" style="group" vertex="1" connectable="0" parent="ZKCa81xU6BHPcgiJYVoB-26">
          <mxGeometry x="5" width="155" height="30" as="geometry" />
        </mxCell>
        <mxCell id="ZKCa81xU6BHPcgiJYVoB-17" value="HOME" style="strokeWidth=1;shadow=0;dashed=0;align=center;html=1;shape=mxgraph.mockup.buttons.button;strokeColor=#666666;fontColor=#000000;mainText=;buttonStyle=round;fontSize=17;fontStyle=1;fillColor=none;whiteSpace=wrap;" vertex="1" parent="ZKCa81xU6BHPcgiJYVoB-40">
          <mxGeometry x="25" width="130" height="30" as="geometry" />
        </mxCell>
        <mxCell id="ZKCa81xU6BHPcgiJYVoB-33" value="&lt;font style=&quot;font-size: 10px;&quot;&gt;icon&lt;/font&gt;" style="text;html=1;strokeColor=none;fillColor=none;align=center;verticalAlign=middle;whiteSpace=wrap;rounded=0;fontColor=#000000;" vertex="1" parent="ZKCa81xU6BHPcgiJYVoB-40">
          <mxGeometry y="5" width="20" height="20" as="geometry" />
        </mxCell>
        <mxCell id="ZKCa81xU6BHPcgiJYVoB-45" value="&lt;font style=&quot;font-size: 10px;&quot;&gt;LOGO&lt;/font&gt;" style="text;html=1;points=[];align=left;verticalAlign=top;spacingTop=-4;fontSize=15;fontFamily=Verdana" vertex="1" parent="7026571954dc6520-1">
          <mxGeometry x="33" y="127" width="40" height="20" as="geometry" />
        </mxCell>
        <mxCell id="ZKCa81xU6BHPcgiJYVoB-46" value="&lt;font color=&quot;#a3a3a3&quot; style=&quot;font-size: 10px;&quot;&gt;Cream background&lt;br&gt;Blue text&lt;br&gt;&lt;/font&gt;" style="text;html=1;points=[];align=left;verticalAlign=top;spacingTop=-4;fontSize=15;fontFamily=Verdana" vertex="1" parent="7026571954dc6520-1">
          <mxGeometry x="960" y="174" width="100" height="50" as="geometry" />
        </mxCell>
        <mxCell id="ZKCa81xU6BHPcgiJYVoB-48" value="&lt;font style=&quot;font-size: 10px;&quot;&gt;CART&lt;/font&gt;" style="text;html=1;points=[];align=left;verticalAlign=top;spacingTop=-4;fontSize=15;fontFamily=Verdana" vertex="1" parent="7026571954dc6520-1">
          <mxGeometry x="989" y="154" width="24" height="20" as="geometry" />
        </mxCell>
        <mxCell id="ZKCa81xU6BHPcgiJYVoB-49" value="" style="verticalLabelPosition=bottom;shadow=0;dashed=0;align=center;html=1;verticalAlign=top;strokeWidth=1;shape=mxgraph.mockup.misc.shoppingCart;strokeColor=#999999;fontFamily=Helvetica;fontSize=10;fontColor=#A3A3A3;fillColor=none;" vertex="1" parent="7026571954dc6520-1">
          <mxGeometry x="990" y="122" width="30" height="38" as="geometry" />
        </mxCell>
        <mxCell id="ZKCa81xU6BHPcgiJYVoB-187" value="" style="group" vertex="1" connectable="0" parent="7026571954dc6520-1">
          <mxGeometry x="80" y="250" width="300" height="300" as="geometry" />
        </mxCell>
        <mxCell id="7026571954dc6520-16" value="Picture of cute pet" style="text;html=1;points=[];align=left;verticalAlign=top;spacingTop=-4;fontSize=15;fontFamily=Verdana" parent="ZKCa81xU6BHPcgiJYVoB-187" vertex="1">
          <mxGeometry x="80" y="60" width="170" height="30" as="geometry" />
        </mxCell>
        <mxCell id="7026571954dc6520-22" value="" style="verticalLabelPosition=bottom;shadow=0;dashed=0;align=center;html=1;verticalAlign=top;strokeWidth=1;shape=mxgraph.mockup.graphics.simpleIcon;strokeColor=#999999;fillColor=none;rounded=0;labelBackgroundColor=none;fontFamily=Verdana;fontSize=12;fontColor=#000000;" parent="ZKCa81xU6BHPcgiJYVoB-187" vertex="1">
          <mxGeometry width="300" height="300" as="geometry" />
        </mxCell>
        <mxCell id="ZKCa81xU6BHPcgiJYVoB-190" value="" style="group" vertex="1" connectable="0" parent="7026571954dc6520-1">
          <mxGeometry x="470" y="327.5" width="520" height="145" as="geometry" />
        </mxCell>
        <mxCell id="ZKCa81xU6BHPcgiJYVoB-188" value="" style="group" vertex="1" connectable="0" parent="ZKCa81xU6BHPcgiJYVoB-190">
          <mxGeometry y="55" width="520" height="90" as="geometry" />
        </mxCell>
        <mxCell id="7026571954dc6520-18" value="&lt;font style=&quot;font-size: 20px;&quot;&gt;&lt;b&gt;Search available pets&lt;/b&gt;&lt;/font&gt;" style="strokeWidth=1;shadow=0;dashed=0;align=center;html=1;shape=mxgraph.mockup.buttons.button;strokeColor=#666666;mainText=;buttonStyle=round;fontSize=17;fontStyle=0;fillColor=none;whiteSpace=wrap;rounded=0;labelBackgroundColor=none;" parent="ZKCa81xU6BHPcgiJYVoB-188" vertex="1">
          <mxGeometry x="20" y="60" width="210" height="30" as="geometry" />
        </mxCell>
        <mxCell id="7026571954dc6520-19" value="&lt;b&gt;&lt;font style=&quot;font-size: 20px;&quot;&gt;Register interest&lt;/font&gt;&lt;/b&gt;" style="strokeWidth=1;shadow=0;dashed=0;align=center;html=1;shape=mxgraph.mockup.buttons.button;strokeColor=#666666;mainText=;buttonStyle=round;fontSize=17;fontStyle=0;fillColor=none;whiteSpace=wrap;rounded=0;labelBackgroundColor=none;" parent="ZKCa81xU6BHPcgiJYVoB-188" vertex="1">
          <mxGeometry x="290" y="60" width="210" height="30" as="geometry" />
        </mxCell>
        <mxCell id="ZKCa81xU6BHPcgiJYVoB-186" value="Happy animals needing happy homes!" style="text;html=1;points=[];align=left;verticalAlign=top;spacingTop=-4;fontSize=30;fontFamily=Helvetica;fontStyle=0" vertex="1" parent="ZKCa81xU6BHPcgiJYVoB-188">
          <mxGeometry width="520" height="40" as="geometry" />
        </mxCell>
        <mxCell id="ZKCa81xU6BHPcgiJYVoB-189" value="Pet Adoptions from LocalsRUs" style="text;html=1;points=[];align=left;verticalAlign=top;spacingTop=-4;fontSize=30;fontFamily=Helvetica;" vertex="1" parent="ZKCa81xU6BHPcgiJYVoB-190">
          <mxGeometry x="35" width="450" height="40" as="geometry" />
        </mxCell>
        <mxCell id="ZKCa81xU6BHPcgiJYVoB-202" value="" style="group" vertex="1" connectable="0" parent="7026571954dc6520-1">
          <mxGeometry x="690" y="620" width="300" height="300" as="geometry" />
        </mxCell>
        <mxCell id="ZKCa81xU6BHPcgiJYVoB-203" value="Picture of cute pet" style="text;html=1;points=[];align=left;verticalAlign=top;spacingTop=-4;fontSize=15;fontFamily=Verdana" vertex="1" parent="ZKCa81xU6BHPcgiJYVoB-202">
          <mxGeometry x="80" y="60" width="170" height="30" as="geometry" />
        </mxCell>
        <mxCell id="ZKCa81xU6BHPcgiJYVoB-204" value="" style="verticalLabelPosition=bottom;shadow=0;dashed=0;align=center;html=1;verticalAlign=top;strokeWidth=1;shape=mxgraph.mockup.graphics.simpleIcon;strokeColor=#999999;fillColor=none;rounded=0;labelBackgroundColor=none;fontFamily=Verdana;fontSize=12;fontColor=#000000;" vertex="1" parent="ZKCa81xU6BHPcgiJYVoB-202">
          <mxGeometry width="300" height="300" as="geometry" />
        </mxCell>
        <mxCell id="ZKCa81xU6BHPcgiJYVoB-206" value="" style="group" vertex="1" connectable="0" parent="7026571954dc6520-1">
          <mxGeometry x="80" y="745" width="560" height="90" as="geometry" />
        </mxCell>
        <mxCell id="ZKCa81xU6BHPcgiJYVoB-209" value="25% Discount for all LocalsRUs members" style="text;html=1;points=[];align=left;verticalAlign=top;spacingTop=-4;fontSize=30;fontFamily=Helvetica;fontStyle=0" vertex="1" parent="ZKCa81xU6BHPcgiJYVoB-206">
          <mxGeometry width="560" height="40" as="geometry" />
        </mxCell>
        <mxCell id="ZKCa81xU6BHPcgiJYVoB-207" value="&lt;font style=&quot;font-size: 20px;&quot;&gt;&lt;b&gt;Bookings&lt;/b&gt;&lt;/font&gt;" style="strokeWidth=1;shadow=0;dashed=0;align=center;html=1;shape=mxgraph.mockup.buttons.button;strokeColor=#666666;mainText=;buttonStyle=round;fontSize=17;fontStyle=0;fillColor=none;whiteSpace=wrap;rounded=0;labelBackgroundColor=none;" vertex="1" parent="7026571954dc6520-1">
          <mxGeometry x="180" y="805" width="108.46" height="30" as="geometry" />
        </mxCell>
        <mxCell id="ZKCa81xU6BHPcgiJYVoB-208" value="&lt;b&gt;&lt;font style=&quot;font-size: 20px;&quot;&gt;Register&amp;nbsp;&lt;/font&gt;&lt;/b&gt;" style="strokeWidth=1;shadow=0;dashed=0;align=center;html=1;shape=mxgraph.mockup.buttons.button;strokeColor=#666666;mainText=;buttonStyle=round;fontSize=17;fontStyle=0;fillColor=none;whiteSpace=wrap;rounded=0;labelBackgroundColor=none;" vertex="1" parent="7026571954dc6520-1">
          <mxGeometry x="400" y="805" width="117.69" height="30" as="geometry" />
        </mxCell>
        <mxCell id="ZKCa81xU6BHPcgiJYVoB-210" value="LocalsRUs Grooming Services" style="text;html=1;points=[];align=left;verticalAlign=top;spacingTop=-4;fontSize=30;fontFamily=Helvetica;" vertex="1" parent="7026571954dc6520-1">
          <mxGeometry x="160" y="690" width="420" height="40" as="geometry" />
        </mxCell>
        <mxCell id="ZKCa81xU6BHPcgiJYVoB-323" value="" style="group" vertex="1" connectable="0" parent="7026571954dc6520-1">
          <mxGeometry x="470" y="1070" width="530" height="145" as="geometry" />
        </mxCell>
        <mxCell id="ZKCa81xU6BHPcgiJYVoB-324" value="" style="group" vertex="1" connectable="0" parent="ZKCa81xU6BHPcgiJYVoB-323">
          <mxGeometry y="55" width="530" height="90" as="geometry" />
        </mxCell>
        <mxCell id="ZKCa81xU6BHPcgiJYVoB-327" value="Save up to %50 on all X brand products&amp;nbsp;" style="text;html=1;points=[];align=left;verticalAlign=top;spacingTop=-4;fontSize=30;fontFamily=Helvetica;fontStyle=0" vertex="1" parent="ZKCa81xU6BHPcgiJYVoB-324">
          <mxGeometry width="530" height="40" as="geometry" />
        </mxCell>
        <mxCell id="ZKCa81xU6BHPcgiJYVoB-328" value="Product of the week" style="text;html=1;points=[];align=left;verticalAlign=top;spacingTop=-4;fontSize=30;fontFamily=Helvetica;" vertex="1" parent="7026571954dc6520-1">
          <mxGeometry x="595" y="1070" width="280" height="40" as="geometry" />
        </mxCell>
        <mxCell id="ZKCa81xU6BHPcgiJYVoB-325" value="&lt;font style=&quot;font-size: 20px;&quot;&gt;&lt;b&gt;Shop now&lt;/b&gt;&lt;/font&gt;" style="strokeWidth=1;shadow=0;dashed=0;align=center;html=1;shape=mxgraph.mockup.buttons.button;strokeColor=#666666;mainText=;buttonStyle=round;fontSize=17;fontStyle=0;fillColor=none;whiteSpace=wrap;rounded=0;labelBackgroundColor=none;" vertex="1" parent="7026571954dc6520-1">
          <mxGeometry x="630" y="1185" width="210" height="30" as="geometry" />
        </mxCell>
        <mxCell id="ZKCa81xU6BHPcgiJYVoB-220" value="" style="group" vertex="1" connectable="0" parent="7026571954dc6520-1">
          <mxGeometry x="41" y="1372" width="235.5" height="233" as="geometry" />
        </mxCell>
        <mxCell id="7026571954dc6520-31" value="Product" style="text;html=1;points=[];align=left;verticalAlign=top;spacingTop=-4;fontSize=15;fontFamily=Verdana" parent="ZKCa81xU6BHPcgiJYVoB-220" vertex="1">
          <mxGeometry x="76" y="14" width="65" height="30" as="geometry" />
        </mxCell>
        <mxCell id="ZKCa81xU6BHPcgiJYVoB-212" value="Special Price" style="text;html=1;points=[];align=left;verticalAlign=top;spacingTop=-4;fontSize=15;fontFamily=Verdana" vertex="1" parent="ZKCa81xU6BHPcgiJYVoB-220">
          <mxGeometry x="59.17" y="180" width="98.67" height="24" as="geometry" />
        </mxCell>
        <mxCell id="ZKCa81xU6BHPcgiJYVoB-218" value="" style="whiteSpace=wrap;html=1;shape=mxgraph.basic.isocube;isoAngle=15;fontFamily=Helvetica;fontSize=20;fontColor=#A3A3A3;fillColor=none;" vertex="1" parent="ZKCa81xU6BHPcgiJYVoB-220">
          <mxGeometry x="68.5" y="54.25" width="80" height="100" as="geometry" />
        </mxCell>
        <mxCell id="ZKCa81xU6BHPcgiJYVoB-219" value="" style="whiteSpace=wrap;html=1;shape=mxgraph.basic.loud_callout;fontFamily=Helvetica;fontSize=20;fontColor=#A3A3A3;fillColor=none;" vertex="1" parent="ZKCa81xU6BHPcgiJYVoB-220">
          <mxGeometry x="128.5" y="44" width="50" height="30" as="geometry" />
        </mxCell>
        <mxCell id="ZKCa81xU6BHPcgiJYVoB-263" value="" style="group" vertex="1" connectable="0" parent="ZKCa81xU6BHPcgiJYVoB-220">
          <mxGeometry width="235.5" height="233" as="geometry" />
        </mxCell>
        <mxCell id="ZKCa81xU6BHPcgiJYVoB-217" value="" style="whiteSpace=wrap;html=1;aspect=fixed;fontFamily=Helvetica;fontSize=20;fontColor=#A3A3A3;fillColor=none;" vertex="1" parent="ZKCa81xU6BHPcgiJYVoB-263">
          <mxGeometry width="228.5" height="228.5" as="geometry" />
        </mxCell>
        <mxCell id="7026571954dc6520-32" value="Add to cart" style="text;html=1;points=[];align=left;verticalAlign=top;spacingTop=-4;fontSize=15;fontFamily=Verdana" parent="ZKCa81xU6BHPcgiJYVoB-263" vertex="1">
          <mxGeometry x="65.5" y="203" width="170" height="30" as="geometry" />
        </mxCell>
        <mxCell id="ZKCa81xU6BHPcgiJYVoB-264" value="" style="group" vertex="1" connectable="0" parent="7026571954dc6520-1">
          <mxGeometry x="299.5" y="1372" width="235.5" height="233" as="geometry" />
        </mxCell>
        <mxCell id="ZKCa81xU6BHPcgiJYVoB-265" value="Product" style="text;html=1;points=[];align=left;verticalAlign=top;spacingTop=-4;fontSize=15;fontFamily=Verdana" vertex="1" parent="ZKCa81xU6BHPcgiJYVoB-264">
          <mxGeometry x="76" y="14" width="65" height="30" as="geometry" />
        </mxCell>
        <mxCell id="ZKCa81xU6BHPcgiJYVoB-266" value="Special Price" style="text;html=1;points=[];align=left;verticalAlign=top;spacingTop=-4;fontSize=15;fontFamily=Verdana" vertex="1" parent="ZKCa81xU6BHPcgiJYVoB-264">
          <mxGeometry x="59.17" y="180" width="98.67" height="24" as="geometry" />
        </mxCell>
        <mxCell id="ZKCa81xU6BHPcgiJYVoB-267" value="" style="whiteSpace=wrap;html=1;shape=mxgraph.basic.isocube;isoAngle=15;fontFamily=Helvetica;fontSize=20;fontColor=#A3A3A3;fillColor=none;" vertex="1" parent="ZKCa81xU6BHPcgiJYVoB-264">
          <mxGeometry x="68.5" y="54.25" width="80" height="100" as="geometry" />
        </mxCell>
        <mxCell id="ZKCa81xU6BHPcgiJYVoB-268" value="" style="whiteSpace=wrap;html=1;shape=mxgraph.basic.loud_callout;fontFamily=Helvetica;fontSize=20;fontColor=#A3A3A3;fillColor=none;" vertex="1" parent="ZKCa81xU6BHPcgiJYVoB-264">
          <mxGeometry x="128.5" y="44" width="50" height="30" as="geometry" />
        </mxCell>
        <mxCell id="ZKCa81xU6BHPcgiJYVoB-269" value="" style="group" vertex="1" connectable="0" parent="ZKCa81xU6BHPcgiJYVoB-264">
          <mxGeometry width="235.5" height="233" as="geometry" />
        </mxCell>
        <mxCell id="ZKCa81xU6BHPcgiJYVoB-270" value="" style="whiteSpace=wrap;html=1;aspect=fixed;fontFamily=Helvetica;fontSize=20;fontColor=#A3A3A3;fillColor=none;" vertex="1" parent="ZKCa81xU6BHPcgiJYVoB-269">
          <mxGeometry width="228.5" height="228.5" as="geometry" />
        </mxCell>
        <mxCell id="ZKCa81xU6BHPcgiJYVoB-271" value="Add to cart" style="text;html=1;points=[];align=left;verticalAlign=top;spacingTop=-4;fontSize=15;fontFamily=Verdana" vertex="1" parent="ZKCa81xU6BHPcgiJYVoB-269">
          <mxGeometry x="65.5" y="203" width="170" height="30" as="geometry" />
        </mxCell>
        <mxCell id="ZKCa81xU6BHPcgiJYVoB-272" value="" style="group" vertex="1" connectable="0" parent="7026571954dc6520-1">
          <mxGeometry x="556.75" y="1372" width="235.5" height="233" as="geometry" />
        </mxCell>
        <mxCell id="ZKCa81xU6BHPcgiJYVoB-273" value="Product" style="text;html=1;points=[];align=left;verticalAlign=top;spacingTop=-4;fontSize=15;fontFamily=Verdana" vertex="1" parent="ZKCa81xU6BHPcgiJYVoB-272">
          <mxGeometry x="76" y="14" width="65" height="30" as="geometry" />
        </mxCell>
        <mxCell id="ZKCa81xU6BHPcgiJYVoB-274" value="Special Price" style="text;html=1;points=[];align=left;verticalAlign=top;spacingTop=-4;fontSize=15;fontFamily=Verdana" vertex="1" parent="ZKCa81xU6BHPcgiJYVoB-272">
          <mxGeometry x="59.17" y="180" width="98.67" height="24" as="geometry" />
        </mxCell>
        <mxCell id="ZKCa81xU6BHPcgiJYVoB-275" value="" style="whiteSpace=wrap;html=1;shape=mxgraph.basic.isocube;isoAngle=15;fontFamily=Helvetica;fontSize=20;fontColor=#A3A3A3;fillColor=none;" vertex="1" parent="ZKCa81xU6BHPcgiJYVoB-272">
          <mxGeometry x="68.5" y="54.25" width="80" height="100" as="geometry" />
        </mxCell>
        <mxCell id="ZKCa81xU6BHPcgiJYVoB-276" value="" style="whiteSpace=wrap;html=1;shape=mxgraph.basic.loud_callout;fontFamily=Helvetica;fontSize=20;fontColor=#A3A3A3;fillColor=none;" vertex="1" parent="ZKCa81xU6BHPcgiJYVoB-272">
          <mxGeometry x="128.5" y="44" width="50" height="30" as="geometry" />
        </mxCell>
        <mxCell id="ZKCa81xU6BHPcgiJYVoB-277" value="" style="group" vertex="1" connectable="0" parent="ZKCa81xU6BHPcgiJYVoB-272">
          <mxGeometry width="235.5" height="233" as="geometry" />
        </mxCell>
        <mxCell id="ZKCa81xU6BHPcgiJYVoB-278" value="" style="whiteSpace=wrap;html=1;aspect=fixed;fontFamily=Helvetica;fontSize=20;fontColor=#A3A3A3;fillColor=none;" vertex="1" parent="ZKCa81xU6BHPcgiJYVoB-277">
          <mxGeometry width="228.5" height="228.5" as="geometry" />
        </mxCell>
        <mxCell id="ZKCa81xU6BHPcgiJYVoB-279" value="Add to cart" style="text;html=1;points=[];align=left;verticalAlign=top;spacingTop=-4;fontSize=15;fontFamily=Verdana" vertex="1" parent="ZKCa81xU6BHPcgiJYVoB-277">
          <mxGeometry x="65.5" y="203" width="170" height="30" as="geometry" />
        </mxCell>
        <mxCell id="ZKCa81xU6BHPcgiJYVoB-280" value="" style="group" vertex="1" connectable="0" parent="7026571954dc6520-1">
          <mxGeometry x="814.5" y="1370" width="235.5" height="233" as="geometry" />
        </mxCell>
        <mxCell id="ZKCa81xU6BHPcgiJYVoB-281" value="Product" style="text;html=1;points=[];align=left;verticalAlign=top;spacingTop=-4;fontSize=15;fontFamily=Verdana" vertex="1" parent="ZKCa81xU6BHPcgiJYVoB-280">
          <mxGeometry x="76" y="14" width="65" height="30" as="geometry" />
        </mxCell>
        <mxCell id="ZKCa81xU6BHPcgiJYVoB-282" value="Special Price" style="text;html=1;points=[];align=left;verticalAlign=top;spacingTop=-4;fontSize=15;fontFamily=Verdana" vertex="1" parent="ZKCa81xU6BHPcgiJYVoB-280">
          <mxGeometry x="59.17" y="180" width="98.67" height="24" as="geometry" />
        </mxCell>
        <mxCell id="ZKCa81xU6BHPcgiJYVoB-283" value="" style="whiteSpace=wrap;html=1;shape=mxgraph.basic.isocube;isoAngle=15;fontFamily=Helvetica;fontSize=20;fontColor=#A3A3A3;fillColor=none;" vertex="1" parent="ZKCa81xU6BHPcgiJYVoB-280">
          <mxGeometry x="68.5" y="54.25" width="80" height="100" as="geometry" />
        </mxCell>
        <mxCell id="ZKCa81xU6BHPcgiJYVoB-284" value="" style="whiteSpace=wrap;html=1;shape=mxgraph.basic.loud_callout;fontFamily=Helvetica;fontSize=20;fontColor=#A3A3A3;fillColor=none;" vertex="1" parent="ZKCa81xU6BHPcgiJYVoB-280">
          <mxGeometry x="128.5" y="44" width="50" height="30" as="geometry" />
        </mxCell>
        <mxCell id="ZKCa81xU6BHPcgiJYVoB-285" value="" style="group" vertex="1" connectable="0" parent="ZKCa81xU6BHPcgiJYVoB-280">
          <mxGeometry width="235.5" height="233" as="geometry" />
        </mxCell>
        <mxCell id="ZKCa81xU6BHPcgiJYVoB-286" value="" style="whiteSpace=wrap;html=1;aspect=fixed;fontFamily=Helvetica;fontSize=20;fontColor=#A3A3A3;fillColor=none;" vertex="1" parent="ZKCa81xU6BHPcgiJYVoB-285">
          <mxGeometry width="228.5" height="228.5" as="geometry" />
        </mxCell>
        <mxCell id="ZKCa81xU6BHPcgiJYVoB-287" value="Add to cart" style="text;html=1;points=[];align=left;verticalAlign=top;spacingTop=-4;fontSize=15;fontFamily=Verdana" vertex="1" parent="ZKCa81xU6BHPcgiJYVoB-285">
          <mxGeometry x="65.5" y="203" width="170" height="30" as="geometry" />
        </mxCell>
        <mxCell id="ZKCa81xU6BHPcgiJYVoB-288" value="" style="group" vertex="1" connectable="0" parent="7026571954dc6520-1">
          <mxGeometry x="40.5" y="1633" width="235.5" height="233" as="geometry" />
        </mxCell>
        <mxCell id="ZKCa81xU6BHPcgiJYVoB-289" value="Product" style="text;html=1;points=[];align=left;verticalAlign=top;spacingTop=-4;fontSize=15;fontFamily=Verdana" vertex="1" parent="ZKCa81xU6BHPcgiJYVoB-288">
          <mxGeometry x="76" y="14" width="65" height="30" as="geometry" />
        </mxCell>
        <mxCell id="ZKCa81xU6BHPcgiJYVoB-290" value="Special Price" style="text;html=1;points=[];align=left;verticalAlign=top;spacingTop=-4;fontSize=15;fontFamily=Verdana" vertex="1" parent="ZKCa81xU6BHPcgiJYVoB-288">
          <mxGeometry x="59.17" y="180" width="98.67" height="24" as="geometry" />
        </mxCell>
        <mxCell id="ZKCa81xU6BHPcgiJYVoB-291" value="" style="whiteSpace=wrap;html=1;shape=mxgraph.basic.isocube;isoAngle=15;fontFamily=Helvetica;fontSize=20;fontColor=#A3A3A3;fillColor=none;" vertex="1" parent="ZKCa81xU6BHPcgiJYVoB-288">
          <mxGeometry x="68.5" y="54.25" width="80" height="100" as="geometry" />
        </mxCell>
        <mxCell id="ZKCa81xU6BHPcgiJYVoB-292" value="" style="whiteSpace=wrap;html=1;shape=mxgraph.basic.loud_callout;fontFamily=Helvetica;fontSize=20;fontColor=#A3A3A3;fillColor=none;" vertex="1" parent="ZKCa81xU6BHPcgiJYVoB-288">
          <mxGeometry x="128.5" y="44" width="50" height="30" as="geometry" />
        </mxCell>
        <mxCell id="ZKCa81xU6BHPcgiJYVoB-293" value="" style="group" vertex="1" connectable="0" parent="ZKCa81xU6BHPcgiJYVoB-288">
          <mxGeometry width="235.5" height="233" as="geometry" />
        </mxCell>
        <mxCell id="ZKCa81xU6BHPcgiJYVoB-294" value="" style="whiteSpace=wrap;html=1;aspect=fixed;fontFamily=Helvetica;fontSize=20;fontColor=#A3A3A3;fillColor=none;" vertex="1" parent="ZKCa81xU6BHPcgiJYVoB-293">
          <mxGeometry width="228.5" height="228.5" as="geometry" />
        </mxCell>
        <mxCell id="ZKCa81xU6BHPcgiJYVoB-295" value="Add to cart" style="text;html=1;points=[];align=left;verticalAlign=top;spacingTop=-4;fontSize=15;fontFamily=Verdana" vertex="1" parent="ZKCa81xU6BHPcgiJYVoB-293">
          <mxGeometry x="65.5" y="203" width="170" height="30" as="geometry" />
        </mxCell>
        <mxCell id="ZKCa81xU6BHPcgiJYVoB-296" value="" style="group" vertex="1" connectable="0" parent="7026571954dc6520-1">
          <mxGeometry x="299" y="1633" width="235.5" height="233" as="geometry" />
        </mxCell>
        <mxCell id="ZKCa81xU6BHPcgiJYVoB-297" value="Product" style="text;html=1;points=[];align=left;verticalAlign=top;spacingTop=-4;fontSize=15;fontFamily=Verdana" vertex="1" parent="ZKCa81xU6BHPcgiJYVoB-296">
          <mxGeometry x="76" y="14" width="65" height="30" as="geometry" />
        </mxCell>
        <mxCell id="ZKCa81xU6BHPcgiJYVoB-298" value="Special Price" style="text;html=1;points=[];align=left;verticalAlign=top;spacingTop=-4;fontSize=15;fontFamily=Verdana" vertex="1" parent="ZKCa81xU6BHPcgiJYVoB-296">
          <mxGeometry x="59.17" y="180" width="98.67" height="24" as="geometry" />
        </mxCell>
        <mxCell id="ZKCa81xU6BHPcgiJYVoB-299" value="" style="whiteSpace=wrap;html=1;shape=mxgraph.basic.isocube;isoAngle=15;fontFamily=Helvetica;fontSize=20;fontColor=#A3A3A3;fillColor=none;" vertex="1" parent="ZKCa81xU6BHPcgiJYVoB-296">
          <mxGeometry x="68.5" y="54.25" width="80" height="100" as="geometry" />
        </mxCell>
        <mxCell id="ZKCa81xU6BHPcgiJYVoB-300" value="" style="whiteSpace=wrap;html=1;shape=mxgraph.basic.loud_callout;fontFamily=Helvetica;fontSize=20;fontColor=#A3A3A3;fillColor=none;" vertex="1" parent="ZKCa81xU6BHPcgiJYVoB-296">
          <mxGeometry x="128.5" y="44" width="50" height="30" as="geometry" />
        </mxCell>
        <mxCell id="ZKCa81xU6BHPcgiJYVoB-301" value="" style="group" vertex="1" connectable="0" parent="ZKCa81xU6BHPcgiJYVoB-296">
          <mxGeometry width="235.5" height="233" as="geometry" />
        </mxCell>
        <mxCell id="ZKCa81xU6BHPcgiJYVoB-302" value="" style="whiteSpace=wrap;html=1;aspect=fixed;fontFamily=Helvetica;fontSize=20;fontColor=#A3A3A3;fillColor=none;" vertex="1" parent="ZKCa81xU6BHPcgiJYVoB-301">
          <mxGeometry width="228.5" height="228.5" as="geometry" />
        </mxCell>
        <mxCell id="ZKCa81xU6BHPcgiJYVoB-303" value="Add to cart" style="text;html=1;points=[];align=left;verticalAlign=top;spacingTop=-4;fontSize=15;fontFamily=Verdana" vertex="1" parent="ZKCa81xU6BHPcgiJYVoB-301">
          <mxGeometry x="65.5" y="203" width="170" height="30" as="geometry" />
        </mxCell>
        <mxCell id="ZKCa81xU6BHPcgiJYVoB-304" value="" style="group" vertex="1" connectable="0" parent="7026571954dc6520-1">
          <mxGeometry x="556.25" y="1633" width="235.5" height="233" as="geometry" />
        </mxCell>
        <mxCell id="ZKCa81xU6BHPcgiJYVoB-305" value="Product" style="text;html=1;points=[];align=left;verticalAlign=top;spacingTop=-4;fontSize=15;fontFamily=Verdana" vertex="1" parent="ZKCa81xU6BHPcgiJYVoB-304">
          <mxGeometry x="76" y="14" width="65" height="30" as="geometry" />
        </mxCell>
        <mxCell id="ZKCa81xU6BHPcgiJYVoB-306" value="Special Price" style="text;html=1;points=[];align=left;verticalAlign=top;spacingTop=-4;fontSize=15;fontFamily=Verdana" vertex="1" parent="ZKCa81xU6BHPcgiJYVoB-304">
          <mxGeometry x="59.17" y="180" width="98.67" height="24" as="geometry" />
        </mxCell>
        <mxCell id="ZKCa81xU6BHPcgiJYVoB-307" value="" style="whiteSpace=wrap;html=1;shape=mxgraph.basic.isocube;isoAngle=15;fontFamily=Helvetica;fontSize=20;fontColor=#A3A3A3;fillColor=none;" vertex="1" parent="ZKCa81xU6BHPcgiJYVoB-304">
          <mxGeometry x="68.5" y="54.25" width="80" height="100" as="geometry" />
        </mxCell>
        <mxCell id="ZKCa81xU6BHPcgiJYVoB-308" value="" style="whiteSpace=wrap;html=1;shape=mxgraph.basic.loud_callout;fontFamily=Helvetica;fontSize=20;fontColor=#A3A3A3;fillColor=none;" vertex="1" parent="ZKCa81xU6BHPcgiJYVoB-304">
          <mxGeometry x="128.5" y="44" width="50" height="30" as="geometry" />
        </mxCell>
        <mxCell id="ZKCa81xU6BHPcgiJYVoB-309" value="" style="group" vertex="1" connectable="0" parent="ZKCa81xU6BHPcgiJYVoB-304">
          <mxGeometry width="235.5" height="233" as="geometry" />
        </mxCell>
        <mxCell id="ZKCa81xU6BHPcgiJYVoB-310" value="" style="whiteSpace=wrap;html=1;aspect=fixed;fontFamily=Helvetica;fontSize=20;fontColor=#A3A3A3;fillColor=none;" vertex="1" parent="ZKCa81xU6BHPcgiJYVoB-309">
          <mxGeometry width="228.5" height="228.5" as="geometry" />
        </mxCell>
        <mxCell id="ZKCa81xU6BHPcgiJYVoB-311" value="Add to cart" style="text;html=1;points=[];align=left;verticalAlign=top;spacingTop=-4;fontSize=15;fontFamily=Verdana" vertex="1" parent="ZKCa81xU6BHPcgiJYVoB-309">
          <mxGeometry x="65.5" y="203" width="170" height="30" as="geometry" />
        </mxCell>
        <mxCell id="ZKCa81xU6BHPcgiJYVoB-312" value="" style="group" vertex="1" connectable="0" parent="7026571954dc6520-1">
          <mxGeometry x="814" y="1631" width="235.5" height="233" as="geometry" />
        </mxCell>
        <mxCell id="ZKCa81xU6BHPcgiJYVoB-313" value="Product" style="text;html=1;points=[];align=left;verticalAlign=top;spacingTop=-4;fontSize=15;fontFamily=Verdana" vertex="1" parent="ZKCa81xU6BHPcgiJYVoB-312">
          <mxGeometry x="76" y="14" width="65" height="30" as="geometry" />
        </mxCell>
        <mxCell id="ZKCa81xU6BHPcgiJYVoB-314" value="Special Price" style="text;html=1;points=[];align=left;verticalAlign=top;spacingTop=-4;fontSize=15;fontFamily=Verdana" vertex="1" parent="ZKCa81xU6BHPcgiJYVoB-312">
          <mxGeometry x="59.17" y="180" width="98.67" height="24" as="geometry" />
        </mxCell>
        <mxCell id="ZKCa81xU6BHPcgiJYVoB-315" value="" style="whiteSpace=wrap;html=1;shape=mxgraph.basic.isocube;isoAngle=15;fontFamily=Helvetica;fontSize=20;fontColor=#A3A3A3;fillColor=none;" vertex="1" parent="ZKCa81xU6BHPcgiJYVoB-312">
          <mxGeometry x="68.5" y="54.25" width="80" height="100" as="geometry" />
        </mxCell>
        <mxCell id="ZKCa81xU6BHPcgiJYVoB-316" value="" style="whiteSpace=wrap;html=1;shape=mxgraph.basic.loud_callout;fontFamily=Helvetica;fontSize=20;fontColor=#A3A3A3;fillColor=none;" vertex="1" parent="ZKCa81xU6BHPcgiJYVoB-312">
          <mxGeometry x="128.5" y="44" width="50" height="30" as="geometry" />
        </mxCell>
        <mxCell id="ZKCa81xU6BHPcgiJYVoB-317" value="" style="group" vertex="1" connectable="0" parent="ZKCa81xU6BHPcgiJYVoB-312">
          <mxGeometry width="235.5" height="233" as="geometry" />
        </mxCell>
        <mxCell id="ZKCa81xU6BHPcgiJYVoB-318" value="" style="whiteSpace=wrap;html=1;aspect=fixed;fontFamily=Helvetica;fontSize=20;fontColor=#A3A3A3;fillColor=none;" vertex="1" parent="ZKCa81xU6BHPcgiJYVoB-317">
          <mxGeometry width="228.5" height="228.5" as="geometry" />
        </mxCell>
        <mxCell id="ZKCa81xU6BHPcgiJYVoB-319" value="Add to cart" style="text;html=1;points=[];align=left;verticalAlign=top;spacingTop=-4;fontSize=15;fontFamily=Verdana" vertex="1" parent="ZKCa81xU6BHPcgiJYVoB-317">
          <mxGeometry x="65.5" y="203" width="170" height="30" as="geometry" />
        </mxCell>
        <mxCell id="ZKCa81xU6BHPcgiJYVoB-321" value="Picture of special product" style="text;html=1;points=[];align=left;verticalAlign=top;spacingTop=-4;fontSize=15;fontFamily=Verdana" vertex="1" parent="7026571954dc6520-1">
          <mxGeometry x="140" y="1000" width="200" height="30" as="geometry" />
        </mxCell>
        <mxCell id="ZKCa81xU6BHPcgiJYVoB-322" value="" style="verticalLabelPosition=bottom;shadow=0;dashed=0;align=center;html=1;verticalAlign=top;strokeWidth=1;shape=mxgraph.mockup.graphics.simpleIcon;strokeColor=#999999;fillColor=none;rounded=0;labelBackgroundColor=none;fontFamily=Verdana;fontSize=12;fontColor=#000000;" vertex="1" parent="7026571954dc6520-1">
          <mxGeometry x="90" y="995" width="300" height="300" as="geometry" />
        </mxCell>
        <mxCell id="ZKCa81xU6BHPcgiJYVoB-329" value="&lt;font color=&quot;#a3a3a3&quot; style=&quot;font-size: 10px;&quot;&gt;Purple background&lt;br&gt;Orange text&lt;br&gt;&lt;/font&gt;" style="text;html=1;points=[];align=left;verticalAlign=top;spacingTop=-4;fontSize=15;fontFamily=Verdana" vertex="1" parent="7026571954dc6520-1">
          <mxGeometry x="460" y="930" width="100" height="50" as="geometry" />
        </mxCell>
        <mxCell id="ZKCa81xU6BHPcgiJYVoB-330" value="" style="verticalLabelPosition=bottom;shadow=0;dashed=0;align=center;html=1;verticalAlign=top;strokeWidth=1;shape=mxgraph.mockup.markup.line;strokeColor=#999999;rounded=0;labelBackgroundColor=none;fillColor=#ffffff;fontFamily=Verdana;fontSize=12;fontColor=#000000;" vertex="1" parent="7026571954dc6520-1">
          <mxGeometry y="1900" width="1090" height="20" as="geometry" />
        </mxCell>
        <mxCell id="ZKCa81xU6BHPcgiJYVoB-332" value="&lt;ul&gt;&lt;li&gt;Home&lt;/li&gt;&lt;li&gt;About us&lt;/li&gt;&lt;li&gt;Adoptions&lt;/li&gt;&lt;li&gt;Why select adoptions&lt;/li&gt;&lt;li&gt;Contact us&lt;/li&gt;&lt;/ul&gt;" style="text;strokeColor=none;fillColor=none;html=1;whiteSpace=wrap;verticalAlign=middle;overflow=hidden;fontFamily=Helvetica;fontSize=20;fontColor=#333333;" vertex="1" parent="7026571954dc6520-1">
          <mxGeometry x="20" y="1970" width="240" height="170" as="geometry" />
        </mxCell>
        <mxCell id="ZKCa81xU6BHPcgiJYVoB-333" value="&lt;ul&gt;&lt;li&gt;Adoptions&lt;/li&gt;&lt;li&gt;Grooming&lt;/li&gt;&lt;li&gt;Puppy School&lt;/li&gt;&lt;li&gt;Dog School&lt;/li&gt;&lt;li&gt;Vet Services&lt;/li&gt;&lt;/ul&gt;" style="text;strokeColor=none;fillColor=none;html=1;whiteSpace=wrap;verticalAlign=middle;overflow=hidden;fontFamily=Helvetica;fontSize=20;fontColor=#333333;" vertex="1" parent="7026571954dc6520-1">
          <mxGeometry x="289" y="1970" width="211.16" height="170" as="geometry" />
        </mxCell>
        <mxCell id="ZKCa81xU6BHPcgiJYVoB-334" value="LocalsRUs Pet Shop" style="text;html=1;strokeColor=none;fillColor=none;align=left;verticalAlign=middle;whiteSpace=wrap;rounded=0;fontFamily=Helvetica;fontSize=20;fontColor=#333333;" vertex="1" parent="7026571954dc6520-1">
          <mxGeometry x="43.75" y="1940" width="229" height="30" as="geometry" />
        </mxCell>
        <mxCell id="ZKCa81xU6BHPcgiJYVoB-335" value="Services" style="text;html=1;strokeColor=none;fillColor=none;align=left;verticalAlign=middle;whiteSpace=wrap;rounded=0;fontFamily=Helvetica;fontSize=20;fontColor=#333333;" vertex="1" parent="7026571954dc6520-1">
          <mxGeometry x="306" y="1940" width="229" height="30" as="geometry" />
        </mxCell>
        <mxCell id="ZKCa81xU6BHPcgiJYVoB-336" value="Shopping" style="text;html=1;strokeColor=none;fillColor=none;align=left;verticalAlign=middle;whiteSpace=wrap;rounded=0;fontFamily=Helvetica;fontSize=20;fontColor=#333333;" vertex="1" parent="7026571954dc6520-1">
          <mxGeometry x="570.4999999999999" y="1940" width="229" height="30" as="geometry" />
        </mxCell>
        <mxCell id="ZKCa81xU6BHPcgiJYVoB-337" value="&lt;ul&gt;&lt;li&gt;Pet food&lt;/li&gt;&lt;li&gt;Dogs&lt;/li&gt;&lt;li&gt;Cats&lt;/li&gt;&lt;li&gt;Birds&lt;/li&gt;&lt;li&gt;Fish&lt;/li&gt;&lt;li&gt;Others&lt;/li&gt;&lt;/ul&gt;" style="text;strokeColor=none;fillColor=none;html=1;whiteSpace=wrap;verticalAlign=middle;overflow=hidden;fontFamily=Helvetica;fontSize=20;fontColor=#333333;" vertex="1" parent="7026571954dc6520-1">
          <mxGeometry x="550" y="1970" width="160" height="170" as="geometry" />
        </mxCell>
        <mxCell id="ZKCa81xU6BHPcgiJYVoB-338" value="Contact us" style="text;html=1;strokeColor=none;fillColor=none;align=left;verticalAlign=middle;whiteSpace=wrap;rounded=0;fontFamily=Helvetica;fontSize=20;fontColor=#333333;" vertex="1" parent="7026571954dc6520-1">
          <mxGeometry x="820.9999999999999" y="1940" width="229" height="30" as="geometry" />
        </mxCell>
        <mxCell id="ZKCa81xU6BHPcgiJYVoB-339" value="&lt;ul&gt;&lt;li&gt;Email&lt;/li&gt;&lt;li&gt;Phone&lt;/li&gt;&lt;li&gt;Shop locations&lt;/li&gt;&lt;/ul&gt;" style="text;strokeColor=none;fillColor=none;html=1;whiteSpace=wrap;verticalAlign=middle;overflow=hidden;fontFamily=Helvetica;fontSize=20;fontColor=#333333;" vertex="1" parent="7026571954dc6520-1">
          <mxGeometry x="799.5" y="1970" width="190.5" height="120" as="geometry" />
        </mxCell>
        <mxCell id="ZKCa81xU6BHPcgiJYVoB-340" value="&lt;font style=&quot;font-size: 30px;&quot;&gt;Facebook&lt;/font&gt;" style="strokeWidth=1;shadow=0;dashed=0;align=center;html=1;shape=mxgraph.mockup.buttons.button;strokeColor=#666666;fontColor=#000000;mainText=;buttonStyle=round;fontSize=17;fontStyle=1;fillColor=none;whiteSpace=wrap;fontFamily=Helvetica;" vertex="1" parent="7026571954dc6520-1">
          <mxGeometry x="149.5" y="2180" width="190" height="50" as="geometry" />
        </mxCell>
        <mxCell id="ZKCa81xU6BHPcgiJYVoB-341" value="&lt;font style=&quot;font-size: 30px;&quot;&gt;TikTok&lt;/font&gt;" style="strokeWidth=1;shadow=0;dashed=0;align=center;html=1;shape=mxgraph.mockup.buttons.button;strokeColor=#666666;fontColor=#000000;mainText=;buttonStyle=round;fontSize=17;fontStyle=1;fillColor=none;whiteSpace=wrap;fontFamily=Helvetica;" vertex="1" parent="7026571954dc6520-1">
          <mxGeometry x="750.5" y="2180" width="190" height="50" as="geometry" />
        </mxCell>
        <mxCell id="ZKCa81xU6BHPcgiJYVoB-342" value="&lt;font style=&quot;font-size: 30px;&quot;&gt;Twitter&lt;/font&gt;" style="strokeWidth=1;shadow=0;dashed=0;align=center;html=1;shape=mxgraph.mockup.buttons.button;strokeColor=#666666;fontColor=#000000;mainText=;buttonStyle=round;fontSize=17;fontStyle=1;fillColor=none;whiteSpace=wrap;fontFamily=Helvetica;" vertex="1" parent="7026571954dc6520-1">
          <mxGeometry x="549.5" y="2180" width="190" height="50" as="geometry" />
        </mxCell>
        <mxCell id="ZKCa81xU6BHPcgiJYVoB-343" value="&lt;font style=&quot;font-size: 30px;&quot;&gt;Instagram&lt;/font&gt;" style="strokeWidth=1;shadow=0;dashed=0;align=center;html=1;shape=mxgraph.mockup.buttons.button;strokeColor=#666666;fontColor=#000000;mainText=;buttonStyle=round;fontSize=17;fontStyle=1;fillColor=none;whiteSpace=wrap;fontFamily=Helvetica;" vertex="1" parent="7026571954dc6520-1">
          <mxGeometry x="349.5" y="2180" width="190" height="50" as="geometry" />
        </mxCell>
        <mxCell id="ZKCa81xU6BHPcgiJYVoB-344" value="&lt;font color=&quot;#4d4d4d&quot;&gt;C 2022 localsRUs pet shop&lt;/font&gt;" style="text;html=1;strokeColor=none;fillColor=none;align=left;verticalAlign=middle;whiteSpace=wrap;rounded=0;fontFamily=Helvetica;fontSize=20;fontColor=#A3A3A3;" vertex="1" parent="7026571954dc6520-1">
          <mxGeometry x="410.25" y="2240" width="269.5" height="30" as="geometry" />
        </mxCell>
        <mxCell id="ZKCa81xU6BHPcgiJYVoB-345" value="&lt;font color=&quot;#a3a3a3&quot; style=&quot;font-size: 10px;&quot;&gt;Cream background&lt;br&gt;Blue text&lt;br&gt;&lt;/font&gt;" style="text;html=1;points=[];align=left;verticalAlign=top;spacingTop=-4;fontSize=15;fontFamily=Verdana" vertex="1" parent="7026571954dc6520-1">
          <mxGeometry x="960" y="2100" width="100" height="50" as="geometry" />
        </mxCell>
        <mxCell id="ZKCa81xU6BHPcgiJYVoB-346" value="&lt;font color=&quot;#a3a3a3&quot; style=&quot;font-size: 10px;&quot;&gt;Buttons&amp;nbsp;&lt;br&gt;Orange background&lt;br&gt;Pink text&lt;br&gt;&lt;/font&gt;" style="text;html=1;points=[];align=left;verticalAlign=top;spacingTop=-4;fontSize=15;fontFamily=Verdana" vertex="1" parent="7026571954dc6520-1">
          <mxGeometry x="710" y="480" width="100" height="60" as="geometry" />
        </mxCell>
        <mxCell id="ZKCa81xU6BHPcgiJYVoB-347" value="&lt;font color=&quot;#a3a3a3&quot; style=&quot;font-size: 10px;&quot;&gt;Product cards&lt;br&gt;White background&lt;br&gt;Blue text&lt;br&gt;&lt;/font&gt;" style="text;html=1;points=[];align=left;verticalAlign=top;spacingTop=-4;fontSize=15;fontFamily=Verdana" vertex="1" parent="7026571954dc6520-1">
          <mxGeometry x="517.69" y="1310" width="100" height="60" as="geometry" />
        </mxCell>
      </root>
    </mxGraphModel>
  </diagram>
</mxfile>
